<?xml version="1.0" encoding="utf-8"?>
<!-- Generator: Adobe Illustrator 22.1.0, SVG Export Plug-In . SVG Version: 6.00 Build 0)  -->
<svg version="1.1" id="图层_1" xmlns="http://www.w3.org/2000/svg" xmlns:xlink="http://www.w3.org/1999/xlink" x="0px" y="0px"
	 viewBox="0 0 90 45" style="enable-background:new 0 0 90 45;" xml:space="preserve">
<style type="text/css">
	.st0{fill:#7F7F7F;}
</style>
<path class="st0" d="M18.2,10.3c-1.5,0.3-4.1,1.6-5.3,2.6c-3.4,2.8-5.2,7.6-4.4,11.8c0.5,2.7,1.6,4.9,3.5,6.7
	c1.3,1.3,2.9,2.4,3.4,2.2c0.2-0.1,1.1-1.2,2.2-2.6c1-1.4,2-2.6,2.2-2.6c0.1-0.1,0.8-0.2,1.5-0.2c1.5-0.2,2.6-0.7,3.6-1.6
	c1-1,1.5-2.1,1.6-3.4c0.1-1,0-1.1-0.4-1.4c-0.6-0.4-0.9-1.1-0.6-1.7c0.2-0.7,0.7-1,1.4-1c1.2,0,1.8,1.3,1.2,2.5
	c-0.1,0.3-0.2,0.7-0.2,0.8c0.2,0.5-0.2,2.3-0.7,3.3c-1,2.1-3.1,3.7-5.5,3.9c-0.6,0.1-1.3,0.2-1.4,0.3c-0.6,0.5-3.3,4.3-3.2,4.6
	c0.2,0.4,1.9,0.7,4.1,0.7c2.4,0,4.1-0.4,6.1-1.6c1.7-1,3.8-3.2,4.7-4.9c2-3.8,2-8.1,0-11.8c-1.3-2.5-4.3-5.2-5.6-5.1
	c-0.1,0-1,1.1-2,2.4s-2,2.5-2.1,2.7c-0.2,0.1-0.9,0.3-1.7,0.4c-2.8,0.3-4.8,2.1-5.2,4.9c-0.1,0.8-0.1,0.9,0.5,1.5
	c0.8,0.8,0.9,1.6,0.2,2.3c-1.2,1.2-3-0.1-2.3-1.7c0.2-0.3,0.3-1.1,0.4-1.8c0.1-1.9,0.7-3.1,2-4.5c1.3-1.3,2.4-1.8,4.3-2l1.1-0.1
	l1.6-2.1c1-1.3,1.6-2.3,1.6-2.5c-0.1-0.5-1.1-0.8-3.3-0.9C20,10.1,19,10.1,18.2,10.3z M55,14.7c-0.1,0.1-0.2,0.7-0.3,1.4l-0.1,1.3
	l-2,0.1v0.6c0,0.6,0,0.6,0.8,0.6c1.3,0,1.3,0,1.3,1.9c0,1.1-0.1,1.8-0.2,1.9c-0.1,0.1-0.6,0.2-1.1,0.2h-0.8v1.2l2,0.1l0.1,1.7
	c0,1.1,0,2-0.2,2.3c-0.2,0.5-0.9,1-1.5,1c-0.4,0-0.7,0.6-0.5,1c0.1,0.4,1.5,0.3,2.1-0.2c1.1-0.8,1.2-1.3,1.2-3.5
	c0-1.4,0.1-2,0.2-2.2c0.1-0.1,0.6-0.2,1-0.2c0.8-0.1,0.8-0.1,0.8-0.6c0.1-0.6,0.1-0.6-0.7-0.6c-1.2,0-1.3-0.3-1.3-2s0.2-2,1.2-2.1
	c0.8-0.1,0.8-0.1,0.8-0.6s0-0.5-0.8-0.6c-0.8,0.1-1,0-1-1.4c0-0.9-0.1-1.2-0.3-1.3C55.4,14.6,55.3,14.6,55,14.7z M60.8,14.7
	c-0.1,0.1-0.2,0.4-0.2,0.7l0.1,0.5h4.4l0.1-0.5c0-0.3,0-0.6-0.2-0.7c-0.1-0.1-1.1-0.2-2.1-0.2C61.9,14.6,60.9,14.7,60.8,14.7z
	 M38.6,15.4c-0.1,0.1-0.1,0.3-0.1,0.6c0,0.4,0.1,0.5,0.3,0.5s2.1,0,4.3,0c4.8,0,4.7-0.1,4.3,1.6s-1.2,3.6-2.2,5
	c-0.9,1.3-1.3,1.5-1.7,1c-0.7-0.9-1.6-2.8-2.1-4.3c-0.5-1.6-0.6-1.7-1-1.6c-0.3,0-0.5,0.1-0.6,0.1c-0.4,0.4,1.2,4.3,2.4,6.1
	c0.4,0.6,0.7,1.1,0.7,1.3c0,0.3-2.1,1.9-3.2,2.4c-0.4,0.2-1.3,0.6-2,0.8c-1.1,0.3-1.2,0.4-1.3,0.8c0,0.3,0,0.5,0.2,0.6
	c0.8,0.3,4.2-1.1,6.1-2.7l1.2-1l0.6,0.5c1.6,1.4,4.8,3.1,5.7,3.1c0.2,0,0.5-0.5,0.5-0.9c0-0.1-0.7-0.4-1.5-0.8
	c-1.5-0.7-3.4-1.9-4-2.6c-0.3-0.4-0.3-0.4,0.5-1.5c1.5-2.1,2.6-4.5,3-7s0.9-2.3-5-2.3C41,15.3,38.6,15.3,38.6,15.4z M71.2,15.7
	c-0.1,0.2-0.1,0.5,0,0.6c0.1,0.1,1.6,0.2,4.4,0.2c3.8,0,4.3,0,4.4-0.3c0.1-0.2,0.1-0.4,0-0.6c-0.1-0.3-0.4-0.3-4.4-0.3h-4.3
	L71.2,15.7z M58.9,17.6c-0.1,0.1-0.1,3-0.1,6.5l0.1,6.2l2.5,0.1c1.5,0,2.8,0,3.2-0.1c0.8-0.2,1.7-0.9,2.1-1.8c0.3-0.6,0.3-1,0.3-5.8
	v-5.2l-4-0.1C59.9,17.4,59,17.4,58.9,17.6z M65.7,20.7c0,1.2-0.1,1.9-0.2,1.9c-1.6,0.1-5,0-5.1-0.1c-0.2-0.1-0.2-3.5-0.1-3.7
	c0.1-0.1,1.3-0.1,2.7-0.1h2.6L65.7,20.7L65.7,20.7z M65.8,24.4c0.1,0.2,0.1,0.9,0.1,1.6c0,2.6-0.7,3.2-3.7,3.1L60.3,29v-2.3
	c0-1.3,0.1-2.4,0.1-2.4c0.1-0.1,1.3-0.1,2.7-0.1C65.3,24.1,65.7,24.1,65.8,24.4z M69.4,20.9c-0.2,0.1-0.3,0.2-0.3,0.6l0.1,0.6
	l2.2,0.1c1.8,0.1,2.2,0.1,2.3,0.4c0,0.1-0.6,1.4-1.4,2.8s-1.4,2.8-1.4,3c0,0.7,0.5,1.5,1.1,1.8c0.4,0.2,1.3,0.3,4.5,0.3
	c4.1,0,4.4-0.1,4.4-0.7c0-0.3-1.7-3.8-1.8-3.8c-0.3,0-1,0.5-1,0.6s0.2,0.7,0.5,1.2c0.7,1.5,0.7,1.5-2.9,1.5c-4.2-0.1-4.1,0.1-2-3.6
	c0.9-1.5,1.7-3,1.9-3.1c0.2-0.3,0.7-0.3,3.5-0.4l3.2-0.1l0.1-0.5c0-0.3,0-0.6-0.2-0.7C81.8,20.7,69.9,20.7,69.4,20.9z"/>
</svg>
