<svg xmlns="http://www.w3.org/2000/svg" viewBox="0 0 74.09 25.04"><defs><style>.cls-1{fill:#7f7f7f;}</style></defs><title>资源 1</title><g id="图层_2" data-name="图层 2"><g id="图层_1-2" data-name="图层 1"><path class="cls-1" d="M9.89.14a15.42,15.42,0,0,0-5.3,2.6,12.78,12.78,0,0,0-4.4,11.8,11.8,11.8,0,0,0,3.5,6.7c1.3,1.3,2.9,2.4,3.4,2.2a22.32,22.32,0,0,0,2.2-2.6,11.63,11.63,0,0,1,2.2-2.6A4,4,0,0,1,13,18a6.29,6.29,0,0,0,3.6-1.6,5.17,5.17,0,0,0,1.6-3.4c.1-1,0-1.1-.4-1.4a1.35,1.35,0,0,1-.6-1.7,1.31,1.31,0,0,1,1.4-1c1.2,0,1.8,1.3,1.2,2.5a4.5,4.5,0,0,0-.2.8,6.51,6.51,0,0,1-.7,3.3,6.86,6.86,0,0,1-5.5,3.9,6.12,6.12,0,0,0-1.4.3c-.6.5-3.3,4.3-3.2,4.6s1.9.7,4.1.7a10.74,10.74,0,0,0,6.1-1.6,14.67,14.67,0,0,0,4.7-4.9,12.35,12.35,0,0,0,0-11.8c-1.3-2.5-4.3-5.2-5.6-5.1a19.83,19.83,0,0,0-2,2.4c-1,1.3-2,2.5-2.1,2.7a7,7,0,0,1-1.7.4A5.56,5.56,0,0,0,7.09,12c-.1.8-.1.9.5,1.5.8.8.9,1.6.2,2.3a1.44,1.44,0,0,1-2.3-1.7,6,6,0,0,0,.4-1.8,6.46,6.46,0,0,1,2-4.5,6.23,6.23,0,0,1,4.3-2l1.1-.1,1.6-2.1a10.23,10.23,0,0,0,1.6-2.5c-.1-.5-1.1-.8-3.3-.9A7.49,7.49,0,0,0,9.89.14Zm36.8,4.4a5,5,0,0,0-.3,1.4l-.1,1.3-2,.1v.6c0,.6,0,.6.8.6,1.3,0,1.3,0,1.3,1.9a5.12,5.12,0,0,1-.2,1.9,2.33,2.33,0,0,1-1.1.2h-.8v1.2l2,.1.1,1.7a6.25,6.25,0,0,1-.2,2.3,1.82,1.82,0,0,1-1.5,1c-.4,0-.7.6-.5,1s1.5.3,2.1-.2c1.1-.8,1.2-1.3,1.2-3.5a6.6,6.6,0,0,1,.2-2.2,2.15,2.15,0,0,1,1-.2c.8-.1.8-.1.8-.6s.1-.6-.7-.6c-1.2,0-1.3-.3-1.3-2s.2-2,1.2-2.1c.8-.1.8-.1.8-.6s0-.5-.8-.6c-.8.1-1,0-1-1.4,0-.9-.1-1.2-.3-1.3A.85.85,0,0,0,46.69,4.54Zm5.8,0a1.17,1.17,0,0,0-.2.7l.1.5h4.4l.1-.5c0-.3,0-.6-.2-.7a7.27,7.27,0,0,0-2.1-.2Zm-22.2.7c-.1.1-.1.3-.1.6s.1.5.3.5h4.3c4.8,0,4.7-.1,4.3,1.6a15,15,0,0,1-2.2,5c-.9,1.3-1.3,1.5-1.7,1a17.23,17.23,0,0,1-2.1-4.3c-.5-1.6-.6-1.7-1-1.6a3.54,3.54,0,0,0-.6.1c-.4.4,1.2,4.3,2.4,6.1a4.17,4.17,0,0,1,.7,1.3c0,.3-2.1,1.9-3.2,2.4a13.77,13.77,0,0,1-2,.8c-1.1.3-1.2.4-1.3.8s0,.5.2.6c.8.3,4.2-1.1,6.1-2.7l1.2-1,.6.5c1.6,1.4,4.8,3.1,5.7,3.1.2,0,.5-.5.5-.9a7.44,7.44,0,0,0-1.5-.8,15.34,15.34,0,0,1-4-2.6c-.3-.4-.3-.4.5-1.5a16.76,16.76,0,0,0,3-7c.4-2.5.9-2.3-5-2.3C32.69,5.14,30.29,5.14,30.29,5.24Zm32.6.3a.63.63,0,0,0,0,.6,23,23,0,0,0,4.4.2c3.8,0,4.3,0,4.4-.3a.64.64,0,0,0,0-.6c-.1-.3-.4-.3-4.4-.3H63Zm-12.3,1.9c-.1.1-.1,3-.1,6.5l.1,6.2,2.5.1a23.79,23.79,0,0,0,3.2-.1,3.36,3.36,0,0,0,2.1-1.8c.3-.6.3-1,.3-5.8V7.34l-4-.1C51.59,7.24,50.69,7.24,50.59,7.44Zm6.8,3.1c0,1.2-.1,1.9-.2,1.9a36,36,0,0,1-5.1-.1,15.14,15.14,0,0,1-.1-3.7,14.35,14.35,0,0,1,2.7-.1h2.6v2Zm.1,3.7a6.22,6.22,0,0,1,.1,1.6c0,2.6-.7,3.2-3.7,3.1l-1.9-.1v-2.3c0-1.3.1-2.4.1-2.4a14.35,14.35,0,0,1,2.7-.1C57,13.94,57.39,13.94,57.49,14.24Zm3.6-3.5c-.2.1-.3.2-.3.6l.1.6,2.2.1c1.8.1,2.2.1,2.3.4a21.15,21.15,0,0,1-1.4,2.8,15.1,15.1,0,0,0-1.4,3,2.19,2.19,0,0,0,1.1,1.8c.4.2,1.3.3,4.5.3,4.1,0,4.4-.1,4.4-.7a26.93,26.93,0,0,0-1.8-3.8,1.9,1.9,0,0,0-1,.6,4.25,4.25,0,0,0,.5,1.2c.7,1.5.7,1.5-2.9,1.5-4.2-.1-4.1.1-2-3.6a29.35,29.35,0,0,1,1.9-3.1c.2-.3.7-.3,3.5-.4l3.2-.1.1-.5c0-.3,0-.6-.2-.7C73.49,10.54,61.59,10.54,61.09,10.74Z"/></g></g></svg>